<?xml version="1.0" encoding="UTF-8" standalone="no"?>
<!-- Created with Inkscape (http://www.inkscape.org/) -->

<svg
   width="512"
   height="512"
   viewBox="0 0 135.46667 135.46667"
   version="1.1"
   id="svg1"
   xml:space="preserve"
   xmlns="http://www.w3.org/2000/svg"
   xmlns:svg="http://www.w3.org/2000/svg"><defs
     id="defs1"><style
       type="text/css"
       id="style2"><![CDATA[
    .fil2 {fill:#1F1F1F}
    .fil3 {fill:#FE002A}
    .fil0 {fill:white}
    .fil1 {fill:#1F1F1F;fill-rule:nonzero}
   ]]></style></defs><g
     id="layer1"><g
       style="clip-rule:evenodd;fill-rule:evenodd;image-rendering:optimizeQuality;shape-rendering:geometricPrecision;text-rendering:geometricPrecision"
       id="g1"
       transform="matrix(0.02485759,0,0,0.02485759,-3.2175509,50.28898)"><g
         id="g4734"
         transform="translate(-1115.9054,-2789.45)"><g
           transform="matrix(2.3608541,0,0,2.3608541,-4445.7384,-3249.0937)"
           id="g4590"><path
             class="fil1"
             d="m 3458.08,2568.76 c 187.7,25.49 356.08,107.6 484.51,227.21 157.86,147.03 255.51,350.45 255.51,575.38 h -162.45 c 0,-178.12 -77.76,-339.62 -203.48,-456.71 -127.26,-118.53 -303.62,-191.86 -498.86,-191.86 -195.24,0 -371.59,73.33 -498.85,191.86 -125.72,117.09 -203.48,278.59 -203.48,456.71 h -162.45 c 0,-224.93 97.65,-428.35 255.51,-575.38 128.43,-119.62 296.8,-201.74 484.52,-227.21 -33.19,-50.21 -84.82,-130.44 -73.22,-150.99 14.07,-24.93 158.54,-27.81 197.98,-28.04 39.44,0.23 183.91,3.12 197.98,28.04 11.6,20.55 -40.03,100.79 -73.22,150.99 z"
             id="path9"
             style="fill:#ffffff;fill-rule:nonzero" /><path
             class="fil2"
             d="M 2468.55,3472.88 H 4198.11 V 3558 c 0,35.74 -29.23,64.97 -64.97,64.97 H 2533.53 c -35.74,0 -64.97,-29.23 -64.97,-64.97 v -85.12 z"
             id="path11"
             style="fill:#ffffff" /><path
             class="fil3"
             d="m 3193.61,3294.72 0.89,-157.64 0.91,-160.44 c 0.17,-29.85 15.06,-55.39 40.95,-70.24 25.89,-14.84 55.46,-14.8 81.31,0.12 l 136.37,78.74 136.38,78.74 c 25.85,14.93 40.67,40.51 40.76,70.36 0.09,29.85 -14.59,55.51 -40.35,70.59 l -138.48,81.01 -136.08,79.59 c -25.97,15.19 -55.85,15.28 -81.9,0.24 -26.06,-15.05 -40.93,-40.96 -40.75,-71.05 z"
             id="path13"
             style="fill:#fe002a" /></g><!--!Font Awesome Free v7.3.1 by @fontawesome - https://fontawesome.com License - https://fontawesome.com/license/free Copyright 2026 Fonticons, Inc.--><path
           d="m 5955.6364,2888.5168 c 0,308.4494 -100.1284,593.3787 -268.8013,824.5477 l 850.756,851.4281 c 84.0004,84.0004 84.0004,220.417 0,304.4174 -84.0004,84.0003 -220.417,84.0003 -304.4174,0 l -850.756,-851.428 c -231.169,168.6728 -516.0984,268.8012 -824.5478,268.8012 -772.1315,0 -1397.7664,-625.6348 -1397.7664,-1397.7664 0,-772.1316 625.6349,-1397.7665 1397.7664,-1397.7665 772.1317,0 1397.7665,625.6349 1397.7665,1397.7665 z m -1397.7665,967.6844 c 534.2425,0 967.6845,-433.442 967.6845,-967.6844 0,-534.2425 -433.442,-967.6845 -967.6845,-967.6845 -534.2424,0 -967.6844,433.442 -967.6844,967.6845 0,534.2424 433.442,967.6844 967.6844,967.6844 z"
           id="path1"
           style="fill:#808080;stroke-width:6.72006" /></g></g></g></svg>
